<svg width="128" height="128" viewBox="0 0 128 128" fill="none" xmlns="http://www.w3.org/2000/svg">
<path fill-rule="evenodd" clip-rule="evenodd" d="M48.7563 17.1698L113.087 50.373C114.85 51.2826 115.962 53.0949 115.976 55.0783C115.989 57.0617 114.901 58.8889 113.151 59.8223L89.1411 72.6276C86.0486 74.2774 82.343 74.3034 79.2277 72.697L14.9129 39.4831C13.1503 38.5735 12.0377 36.7613 12.0242 34.7778C12.0108 32.7944 13.0988 30.9673 14.8489 30.0339L38.8589 17.2285C41.9489 15.5876 45.647 15.5657 48.7563 17.1698Z" stroke="#323232" stroke-width="4" stroke-linecap="round" stroke-linejoin="round"/>
<path fill-rule="evenodd" clip-rule="evenodd" d="M79.2437 17.1698L14.9129 50.373C13.1503 51.2826 12.0377 53.0949 12.0242 55.0783C12.0108 57.0617 13.0988 58.8889 14.8489 59.8223L38.8589 72.6276C41.9514 74.2774 45.657 74.3034 48.7723 72.697L113.087 39.4831C114.85 38.5735 115.962 36.7613 115.976 34.7778C115.989 32.7944 114.901 30.9673 113.151 30.0339L89.1411 17.2285C86.0511 15.5876 82.353 15.5657 79.2437 17.1698Z" stroke="#323232" stroke-width="4" stroke-linecap="round" stroke-linejoin="round"/>
<path d="M101.909 65.8194V86.8202C101.909 90.7619 99.737 94.3828 96.2588 96.2374L69.0474 110.766C65.9094 112.439 62.144 112.439 59.0059 110.766L31.7946 96.2374C28.3164 94.3828 26.1442 90.7619 26.1442 86.8202V65.8194" stroke="#323232" stroke-width="4" stroke-linecap="round" stroke-linejoin="round"/>
<path d="M64 112.02V64.8217" stroke="#323232" stroke-width="4" stroke-linecap="round" stroke-linejoin="round"/>
</svg>
