<svg width="36" height="36" viewBox="0 0 36 36" fill="none" xmlns="http://www.w3.org/2000/svg">
<path fill-rule="evenodd" clip-rule="evenodd" d="M11.1135 21.369L8.811 10.5H27.75C28.7265 10.5 29.442 11.4165 29.205 12.3645L27.183 20.4525C26.8755 21.681 25.8315 22.584 24.5715 22.71L14.3475 23.733C12.8235 23.8845 11.43 22.866 11.1135 21.369Z" stroke="#323232" stroke-width="4" stroke-linecap="round" stroke-linejoin="round"/>
<path d="M8.811 10.5L7.836 6H5.25" stroke="#323232" stroke-width="4" stroke-linecap="round" stroke-linejoin="round"/>
<path d="M25.6635 28.9005C25.3605 28.9005 25.1145 29.1465 25.1175 29.4495C25.1175 29.7525 25.3635 29.9985 25.6665 29.9985C25.9695 29.9985 26.2155 29.7525 26.2155 29.4495C26.214 29.1465 25.968 28.9005 25.6635 28.9005" stroke="#323232" stroke-width="4" stroke-linecap="round" stroke-linejoin="round"/>
<path d="M13.0455 28.9005C12.7425 28.9005 12.4965 29.1465 12.4995 29.4495C12.4965 29.754 12.744 30 13.047 30C13.35 30 13.596 29.754 13.596 29.451C13.596 29.1465 13.35 28.9005 13.0455 28.9005" stroke="#323232" stroke-width="4" stroke-linecap="round" stroke-linejoin="round"/>
</svg>
